<svg width="28" height="28" viewBox="0 0 28 28" fill="none" xmlns="http://www.w3.org/2000/svg">
<g clip-path="url(#clip0_305_6222)">
<path d="M21.1105 19.921H21.0928C20.9124 19.9171 20.7381 19.8555 20.5953 19.7452C20.4525 19.6349 20.3488 19.4818 20.2994 19.3083L17.6249 9.95388L15.9919 14.3087C15.9318 14.4696 15.824 14.6083 15.683 14.7063C15.542 14.8043 15.3745 14.857 15.2028 14.8573H11.8269V13.1694H14.6179L16.9447 6.96542C17.007 6.79908 17.1202 6.65663 17.2682 6.55837C17.4161 6.4601 17.5913 6.41103 17.7688 6.41814C17.9463 6.42524 18.117 6.48817 18.2567 6.59795C18.3963 6.70773 18.4977 6.85877 18.5465 7.02956L21.1721 16.222L22.8423 11.2148C22.8983 11.0468 23.0056 10.9006 23.1492 10.797C23.2928 10.6934 23.4653 10.6376 23.6424 10.6375H27.0182V12.3254H24.25L21.9106 19.3438C21.8546 19.5118 21.7473 19.6579 21.6037 19.7615C21.4601 19.8651 21.2876 19.9209 21.1105 19.921ZM12.6709 25.8288H10.983V19.921C10.9823 19.2498 10.7153 18.6061 10.2407 18.1315C9.766 17.6568 9.12239 17.3898 8.4511 17.3892H5.07527C4.40398 17.3898 3.76037 17.6568 3.2857 18.1315C2.81102 18.6061 2.54406 19.2498 2.54339 19.921V25.8288H0.855469V19.921C0.856809 18.8023 1.30182 17.7297 2.0929 16.9387C2.88397 16.1476 3.95652 15.7026 5.07527 15.7012H8.4511C9.56985 15.7026 10.6424 16.1476 11.4335 16.9387C12.2245 17.7297 12.6696 18.8023 12.6709 19.921V25.8288ZM6.76319 7.26165C7.26394 7.26165 7.75346 7.41014 8.16982 7.68835C8.58619 7.96655 8.9107 8.36198 9.10234 8.82462C9.29397 9.28726 9.34411 9.79634 9.24641 10.2875C9.14872 10.7786 8.90758 11.2297 8.55349 11.5838C8.1994 11.9379 7.74827 12.1791 7.25713 12.2768C6.76599 12.3744 6.25692 12.3243 5.79428 12.1327C5.33164 11.941 4.93621 11.6165 4.65801 11.2002C4.3798 10.7838 4.23131 10.2943 4.23131 9.79353C4.23131 9.12203 4.49806 8.47804 4.97288 8.00322C5.4477 7.5284 6.09169 7.26165 6.76319 7.26165ZM6.76319 5.57373C5.92859 5.57373 5.11273 5.82122 4.41879 6.28489C3.72485 6.74857 3.18399 7.40761 2.8646 8.17868C2.54521 8.94975 2.46165 9.79821 2.62447 10.6168C2.78729 11.4353 3.18919 12.1872 3.77934 12.7774C4.36949 13.3675 5.12138 13.7694 5.93994 13.9322C6.7585 14.0951 7.60696 14.0115 8.37803 13.6921C9.1491 13.3727 9.80814 12.8319 10.2718 12.1379C10.7355 11.444 10.983 10.6281 10.983 9.79353C10.983 8.67437 10.5384 7.60105 9.74703 6.80968C8.95567 6.01831 7.88234 5.57373 6.76319 5.57373Z" fill="white"/>
</g>
<defs>
<clipPath id="clip0_305_6222">
<rect width="27.0067" height="27.0067" fill="white" transform="translate(0.0117188 0.51001)"/>
</clipPath>
</defs>
</svg>
