<svg width="28" height="28" viewBox="0 0 28 28" fill="none" xmlns="http://www.w3.org/2000/svg">
<path d="M19.0679 23.2683L16.8728 21.0732L15.6777 22.2682L19.0679 25.6584L25.8481 18.8781L24.6531 17.6831L19.0679 23.2683Z" fill="#19BCA4"/>
<path d="M21.6108 4.46984H19.0682V3.62231C19.0668 3.17316 18.8878 2.74279 18.5702 2.4252C18.2526 2.1076 17.8222 1.92859 17.3731 1.92725H10.5929C10.1437 1.92859 9.71335 2.1076 9.39576 2.4252C9.07816 2.74279 8.89915 3.17316 8.89781 3.62231V4.46984H6.35522C5.90607 4.47118 5.4757 4.65019 5.15811 4.96779C4.84051 5.28538 4.6615 5.71575 4.66016 6.1649V23.963C4.6615 24.4122 4.84051 24.8425 5.15811 25.1601C5.4757 25.4777 5.90607 25.6567 6.35522 25.6581H13.983V23.963H6.35522V6.1649H8.89781V8.70749H19.0682V6.1649H21.6108V15.4877H23.3058V6.1649C23.3045 5.71575 23.1255 5.28538 22.8079 4.96779C22.4903 4.65019 22.0599 4.47118 21.6108 4.46984ZM17.3731 7.01243H10.5929V3.62231H17.3731V7.01243Z" fill="#19BCA4"/>
</svg>
