<svg width="30" height="30" viewBox="0 0 30 30" fill="none" xmlns="http://www.w3.org/2000/svg">
<g clip-path="url(#clip0_193_361)">
<path d="M1.38477 11.5842V18.3342M1.38477 1.07138V7.82138M1.38477 22.0992V28.8492M14.5226 1.07138V7.82138M18.5448 1.07138V7.82138M5.61477 11.5842V18.3342M18.2148 20.3571V18.2142C18.2148 15.8571 20.1433 13.9285 22.5005 13.9285C24.8576 13.9285 26.7862 15.8571 26.7862 18.2142V20.3571M5.65119 3.5871C5.65119 2.91961 5.91635 2.27945 6.38834 1.80746C6.86033 1.33547 7.50049 1.07031 8.16798 1.07031C8.83547 1.07031 9.47563 1.33547 9.94762 1.80746C10.4196 2.27945 10.6848 2.91961 10.6848 3.5871V5.26496C10.6848 5.93273 10.4195 6.57316 9.9473 7.04535C9.47511 7.51754 8.83469 7.78281 8.16691 7.78281C7.49913 7.78281 6.8587 7.51754 6.38651 7.04535C5.91432 6.57316 5.64905 5.93273 5.64905 5.26496L5.65119 3.5871ZM9.46119 14.1C9.46119 13.4325 9.72636 12.7923 10.1983 12.3203C10.6703 11.8483 11.3105 11.5832 11.978 11.5832C12.6455 11.5832 13.2856 11.8483 13.7576 12.3203C14.2296 12.7923 14.4948 13.4325 14.4948 14.1V15.7778C14.4948 16.4453 14.2296 17.0855 13.7576 17.5574C13.2856 18.0294 12.6455 18.2946 11.978 18.2946C11.3105 18.2946 10.6703 18.0294 10.1983 17.5574C9.72636 17.0855 9.46119 16.4453 9.46119 15.7778V14.1ZM5.65119 24.6535C5.65119 23.986 5.91635 23.3459 6.38834 22.8739C6.86033 22.4019 7.50049 22.1367 8.16798 22.1367C8.83547 22.1367 9.47563 22.4019 9.94762 22.8739C10.4196 23.3459 10.6848 23.986 10.6848 24.6535V26.3314C10.6848 26.9992 10.4195 27.6396 9.9473 28.1118C9.47511 28.584 8.83469 28.8492 8.16691 28.8492C7.49913 28.8492 6.8587 28.584 6.38651 28.1118C5.91432 27.6396 5.64905 26.9992 5.64905 26.3314L5.65119 24.6535ZM17.1433 20.3571H27.8576C28.5005 20.3571 28.9291 20.7857 28.9291 21.4285V27.8571C28.9291 28.5 28.5005 28.9285 27.8576 28.9285H17.1433C16.5005 28.9285 16.0719 28.5 16.0719 27.8571V21.4285C16.0719 20.7857 16.5005 20.3571 17.1433 20.3571Z" stroke="white" stroke-linecap="round" stroke-linejoin="round"/>
</g>
<defs>
<clipPath id="clip0_193_361">
<rect width="30" height="30" fill="white"/>
</clipPath>
</defs>
</svg>
