<svg width="32" height="32" viewBox="0 0 32 32" fill="none" xmlns="http://www.w3.org/2000/svg">
<path d="M16.0002 2C13.8003 2 12.0002 3.8 12.0002 6C12.0002 7.129 12.4882 8.145 13.2502 8.875C13.014 9.04118 12.7943 9.22972 12.5942 9.438C11.7542 10.328 11.2302 11.516 11.0002 12.812H11.0312L9.03125 22.812L8.78125 24H13.0002V30H15.0002V24H17.0002V30H19.0002V24H23.2192L22.9692 22.812L20.9692 12.812C20.7393 11.578 20.2393 10.402 19.4062 9.5C19.1971 9.2708 18.9671 9.06157 18.7192 8.875C19.4922 8.145 20.0002 7.137 20.0002 6C20.0002 3.8 18.2002 2 16.0002 2ZM16.0002 4C17.1172 4 18.0002 4.883 18.0002 6C18.0002 7.117 17.1172 8 16.0002 8C14.8832 8 14.0002 7.117 14.0002 6C14.0002 4.883 14.8832 4 16.0002 4ZM16.0002 10C16.8282 10 17.4222 10.316 17.9382 10.875C18.4532 11.434 18.8593 12.262 19.0312 13.188L20.7812 22H11.2203L12.9703 13.187H13.0002C13.1762 12.187 13.5592 11.347 14.0632 10.813C14.5662 10.277 15.1532 10 16.0002 10Z" fill="white"/>
</svg>
