<svg width="40" height="40" viewBox="0 0 40 40" fill="none" xmlns="http://www.w3.org/2000/svg">
<path d="M36.0092 16.4025H34.6667V16.3333H19.6667V23H29.0858C27.7117 26.8808 24.0192 29.6667 19.6667 29.6667C14.1442 29.6667 9.66667 25.1892 9.66667 19.6667C9.66667 14.1442 14.1442 9.66667 19.6667 9.66667C22.2158 9.66667 24.535 10.6283 26.3008 12.1992L31.015 7.485C28.0383 4.71083 24.0567 3 19.6667 3C10.4625 3 3 10.4625 3 19.6667C3 28.8708 10.4625 36.3333 19.6667 36.3333C28.8708 36.3333 36.3333 28.8708 36.3333 19.6667C36.3333 18.5492 36.2183 17.4583 36.0092 16.4025Z" fill="#FFC107"/>
<path d="M5.16797 12.0385L10.5525 15.9874C12.0095 12.3802 15.538 9.83339 19.6672 9.83339C22.1739 9.83339 24.4544 10.779 26.1908 12.3237L30.8264 7.68808C27.8994 4.96015 23.9841 3.27783 19.6672 3.27783C13.3722 3.27783 7.91311 6.83176 5.16797 12.0385Z" fill="#FF3D00"/>
<path d="M19.6664 36.0556C23.8996 36.0556 27.7461 34.4356 30.6543 31.8011L25.5819 27.5088C23.8815 28.8028 21.8031 29.5024 19.6664 29.5001C15.4036 29.5001 11.7841 26.782 10.4206 22.9888L5.07617 27.1065C7.78853 32.414 13.2968 36.0556 19.6664 36.0556Z" fill="#4CAF50"/>
<path d="M35.7361 16.4569H34.416V16.3889H19.666V22.9445H28.9282C28.2818 24.7607 27.1175 26.3478 25.5791 27.5096L25.5816 27.508L30.6539 31.8002C30.295 32.1263 36.0549 27.8611 36.0549 19.6667C36.0549 18.5678 35.9418 17.4952 35.7361 16.4569Z" fill="#020344"/>
</svg>
