<svg width="28" height="28" viewBox="0 0 28 28" fill="none" xmlns="http://www.w3.org/2000/svg">
<path d="M22.0695 13.2276L22.0706 8.70741C22.0706 8.25785 21.892 7.8267 21.5741 7.50882C21.2562 7.19093 20.8251 7.01235 20.3755 7.01235C19.926 7.01235 19.4948 7.19093 19.1769 7.50882C18.859 7.8267 18.6805 8.25785 18.6805 8.70741M18.6805 8.70741V6.44733C18.6805 5.99777 18.5019 5.56662 18.184 5.24874C17.8661 4.93085 17.435 4.75227 16.9854 4.75227C16.5358 4.75227 16.1047 4.93085 15.7868 5.24874C15.4689 5.56662 15.2903 5.99777 15.2903 6.44733M18.6805 8.70741V11.5325M11.9002 6.44733C11.9002 5.99777 11.7216 5.56662 11.4037 5.24874C11.0859 4.93085 10.6547 4.75227 10.2052 4.75227C9.7556 4.75227 9.32446 4.93085 9.00657 5.24874C8.68869 5.56662 8.5101 5.99777 8.5101 6.44733V15.4458L6.67831 13.6084C6.489 13.4183 6.26161 13.2703 6.01107 13.1743C5.76053 13.0783 5.49251 13.0364 5.22462 13.0513C4.95674 13.0663 4.69504 13.1377 4.45673 13.261C4.21842 13.3843 4.00889 13.5566 3.84191 13.7666C3.57775 14.0979 3.43082 14.5073 3.42407 14.931C3.41732 15.3546 3.55115 15.7685 3.80462 16.108L7.19926 20.6485C7.96994 21.6791 8.35529 22.1933 8.8186 22.5945C9.52601 23.2047 10.3735 23.6307 11.2855 23.8307C11.8482 23.955 12.4506 23.9629 13.5942 23.9629M11.9002 6.44733V4.18725C11.9002 3.73769 12.0788 3.30654 12.3967 2.98866C12.7146 2.67077 13.1457 2.49219 13.5953 2.49219C14.0448 2.49219 14.476 2.67077 14.7939 2.98866C15.1118 3.30654 15.2903 3.73769 15.2903 4.18725V6.44733M11.9002 6.44733V11.5325M15.2903 6.44733V11.5325M16.9843 22.2679C16.9843 21.2113 16.9843 20.6836 17.2114 20.2903C17.3602 20.0327 17.5741 19.8187 17.8318 19.6699C18.2251 19.4428 18.7528 19.4428 19.8094 19.4428H20.9394C21.996 19.4428 22.5237 19.4428 22.917 19.6699C23.1746 19.8187 23.3886 20.0327 23.5374 20.2903C23.7645 20.6836 23.7645 21.2113 23.7645 22.2679C23.7645 23.3245 23.7645 23.8522 23.5374 24.2455C23.3886 24.5031 23.1746 24.7171 22.917 24.8658C22.5237 25.093 21.996 25.093 20.9394 25.093H19.8094C18.7528 25.093 18.2251 25.093 17.8318 24.8658C17.5741 24.7171 17.3602 24.5031 17.2114 24.2455C16.9843 23.8522 16.9843 23.3245 16.9843 22.2679ZM18.6793 17.7477C18.6793 17.2982 18.8579 16.867 19.1758 16.5491C19.4937 16.2313 19.9248 16.0527 20.3744 16.0527C20.8239 16.0527 21.2551 16.2313 21.573 16.5491C21.8909 16.867 22.0695 17.2982 22.0695 17.7477V19.4428H18.6793V17.7477Z" stroke="#FFB079" stroke-width="1.35605" stroke-linecap="round" stroke-linejoin="round"/>
</svg>
