<svg width="31" height="31" viewBox="0 0 31 31" fill="none" xmlns="http://www.w3.org/2000/svg">
<g clip-path="url(#clip0_300_3659)">
<path d="M30.2449 22.9686L30.1902 7.03121C30.1768 3.14798 27.005 0.0107618 23.1057 0.0240372L7.10229 0.0785214C3.20299 0.0917967 0.0527782 3.25054 0.0661085 7.13377L0.120818 23.0712C0.134149 26.9544 3.30597 30.0916 7.20528 30.0783L23.2087 30.0239C27.108 30.0106 30.2582 26.8518 30.2449 22.9686Z" fill="url(#paint0_radial_300_3659)"/>
<path d="M30.2449 22.9686L30.1902 7.03121C30.1768 3.14798 27.005 0.0107618 23.1057 0.0240372L7.10229 0.0785214C3.20299 0.0917967 0.0527782 3.25054 0.0661085 7.13377L0.120818 23.0712C0.134149 26.9544 3.30597 30.0916 7.20528 30.0783L23.2087 30.0239C27.108 30.0106 30.2582 26.8518 30.2449 22.9686Z" fill="url(#paint1_radial_300_3659)"/>
<path d="M26.923 15.0122C26.9121 11.8297 26.8967 11.4302 26.8354 10.1805C26.7737 8.93312 26.5725 8.0822 26.2789 7.33812C25.9757 6.56828 25.5714 5.91587 24.9149 5.26677C24.2585 4.61709 23.6007 4.21889 22.8259 3.9213C22.0766 3.63322 21.2204 3.43844 19.9681 3.38657C18.7127 3.33494 18.3113 3.32166 15.1155 3.33254C11.9196 3.34342 11.5198 3.35885 10.2649 3.41984C9.0124 3.48152 8.15795 3.6819 7.41079 3.97401C6.63777 4.27618 5.98265 4.67884 5.33087 5.33262C4.67849 5.98606 4.27771 6.64122 3.97982 7.41251C3.69138 8.15916 3.49603 9.01155 3.44288 10.2591C3.3901 11.5093 3.37747 11.9085 3.38839 15.0909C3.39932 18.2738 3.41469 18.672 3.47605 19.9217C3.53776 21.1691 3.73896 22.021 4.03253 22.7656C4.3357 23.5351 4.74097 24.1866 5.39782 24.8354C6.05408 25.4851 6.71194 25.8832 7.48667 26.1809C8.23617 26.4664 9.09221 26.6613 10.3447 26.7156C11.6 26.7675 12.0001 26.7808 15.1959 26.7699C18.3918 26.759 18.7928 26.743 20.0478 26.6826C21.3003 26.6197 22.1547 26.419 22.9018 26.1284C23.6748 25.8254 24.33 25.4229 24.9819 24.7688C25.6341 24.1147 26.034 23.4615 26.3315 22.689C26.62 21.9409 26.8155 21.0882 26.8685 19.8404C26.9213 18.5902 26.934 18.1922 26.923 15.0086L26.923 15.0122ZM24.7989 13.9682C24.8004 14.2802 24.8011 14.6284 24.8025 15.0194C24.8132 18.1484 24.8032 18.5193 24.7511 19.7551C24.7025 20.8978 24.513 21.5186 24.3533 21.9323C24.1419 22.4799 23.8883 22.8706 23.4777 23.282C23.0673 23.6935 22.6759 23.9487 22.1275 24.1635C21.7138 24.3253 21.0918 24.5186 19.9447 24.5745C18.7043 24.6349 18.3318 24.6483 15.1914 24.659C12.051 24.6697 11.6783 24.6588 10.4377 24.6069C9.29021 24.5585 8.66684 24.3697 8.25196 24.2107C7.70206 24.0002 7.31016 23.7472 6.89713 23.3384C6.48387 22.9297 6.22766 22.5411 6.01244 21.9947C5.84923 21.5826 5.65588 20.9627 5.59947 19.8203C5.53887 18.5851 5.52536 18.2141 5.51462 15.0851C5.50387 11.956 5.51484 11.585 5.56696 10.3496C5.61599 9.20683 5.80555 8.58603 5.96523 8.17204C6.17669 7.62452 6.43022 7.23295 6.84067 6.8214C7.25111 6.40984 7.6415 6.15468 8.19018 5.93989C8.60395 5.77805 9.22602 5.58479 10.3731 5.52886C11.6134 5.4685 11.986 5.45598 15.1284 5.44528C18.2708 5.43459 18.6414 5.44457 19.8821 5.49648C21.0296 5.54484 21.653 5.73362 22.0683 5.89264C22.6182 6.10323 23.0113 6.35619 23.4245 6.76506C23.8378 7.17392 24.0941 7.56352 24.3097 8.10971C24.4729 8.52224 24.6663 9.14197 24.7229 10.2844C24.7757 11.3652 24.7918 11.7841 24.8018 13.9681L24.7989 13.9682ZM22.8701 21.2815C22.8675 20.5052 22.2334 19.8774 21.4537 19.8801C20.6741 19.8827 20.0438 20.5148 20.0465 21.2911C20.0491 22.0675 20.6838 22.6952 21.4634 22.6926C22.2429 22.6899 22.8733 22.0579 22.8706 21.2815L22.8701 21.2815ZM21.1988 15.0317C21.1874 11.7083 18.4724 9.02291 15.1351 9.03427C11.7978 9.04563 9.10256 11.7494 9.11397 15.0728C9.12538 18.3964 11.8391 21.0808 15.1764 21.0695C18.5136 21.0581 21.2102 18.355 21.1988 15.0315L21.1988 15.0317ZM19.0782 15.0389C19.0856 17.1962 17.3356 18.9512 15.1691 18.9586C13.0029 18.966 11.2406 17.2229 11.2332 15.0656C11.2258 12.9083 12.9761 11.1535 15.1423 11.1461C17.3088 11.1387 19.0708 12.8815 19.0782 15.0389Z" fill="white"/>
</g>
<defs>
<radialGradient id="paint0_radial_300_3659" cx="0" cy="0" r="1" gradientUnits="userSpaceOnUse" gradientTransform="translate(-2.25081 8.07916) rotate(-0.195065) scale(29.8553 27.6533)">
<stop stop-color="#FFDD55"/>
<stop offset="0.1" stop-color="#FFDD55"/>
<stop offset="0.5" stop-color="#FF543E"/>
<stop offset="1" stop-color="#C837AB"/>
</radialGradient>
<radialGradient id="paint1_radial_300_3659" cx="0" cy="0" r="1" gradientUnits="userSpaceOnUse" gradientTransform="translate(27.9788 -5.0177) rotate(168.531) scale(13.3433 54.7927)">
<stop stop-color="#3771C8"/>
<stop offset="0.128" stop-color="#3771C8"/>
<stop offset="1" stop-color="#6600FF" stop-opacity="0"/>
</radialGradient>
<clipPath id="clip0_300_3659">
<rect width="30" height="30.1242" fill="white" transform="matrix(0.00343277 0.999994 -0.999994 0.00340452 30.166 0)"/>
</clipPath>
</defs>
</svg>
