<svg width="227" height="48" viewBox="0 0 227 48" fill="none" xmlns="http://www.w3.org/2000/svg">
<path d="M7.70703 1L217.716 1.67311" stroke="#D9A700" stroke-width="1.28446"/>
<path d="M7.70703 45.9561L217.716 46.6292" stroke="#D9A700" stroke-width="1.28446"/>
<path d="M19.6163 35.349L12.6738 27.0771H15.8053L22.7773 35.3195V35.349H19.6163ZM1.65438 35.349V14.1079H19.3799C20.0299 14.1079 20.6207 14.2753 21.1525 14.6101C21.7039 14.9252 22.1372 15.3487 22.4523 15.8805C22.7675 16.4122 22.925 17.0031 22.925 17.653V23.8865C22.925 24.5364 22.7675 25.1273 22.4523 25.659C22.1372 26.1908 21.7039 26.6241 21.1525 26.9589C20.6207 27.274 20.0299 27.4316 19.3799 27.4316H4.04733V35.349H1.65438ZM5.19949 25.0091H19.3799C19.695 25.0091 19.9609 24.9008 20.1776 24.6841C20.4139 24.4675 20.5321 24.2016 20.5321 23.8865V17.653C20.5321 17.3379 20.4139 17.072 20.1776 16.8554C19.9609 16.619 19.695 16.5008 19.3799 16.5008H5.19949C4.88437 16.5008 4.60864 16.619 4.3723 16.8554C4.15565 17.072 4.04733 17.3379 4.04733 17.653V23.8865C4.04733 24.2016 4.15565 24.4675 4.3723 24.6841C4.60864 24.9008 4.88437 25.0091 5.19949 25.0091ZM26.0919 35.349V14.0784H45.5013V16.4713H28.4848V23.5024H42.163V25.9249H28.4848V32.9561H45.5013V35.349H26.0919ZM48.7104 35.349V17.6235C48.7104 16.9735 48.8679 16.3827 49.1831 15.8509C49.4982 15.2994 49.9216 14.8662 50.4534 14.551C51.0048 14.2359 51.6055 14.0784 52.2555 14.0784H66.4359C67.0858 14.0784 67.6767 14.2359 68.2085 14.551C68.7599 14.8662 69.1932 15.2994 69.5083 15.8509C69.8235 16.3827 69.981 16.9735 69.981 17.6235V35.349H67.5881V27.5793H51.1033V35.349H48.7104ZM51.1033 25.1864H67.5881V17.6235C67.5881 17.3083 67.4699 17.0425 67.2336 16.8258C67.0169 16.5895 66.751 16.4713 66.4359 16.4713H52.2555C51.9404 16.4713 51.6646 16.5895 51.4283 16.8258C51.2116 17.0425 51.1033 17.3083 51.1033 17.6235V25.1864ZM73.3766 35.349V14.0488H75.7695V32.9561H94.6472V35.349H73.3766ZM104.419 35.349V14.0784H107.698L116.531 24.5955L125.364 14.0784H128.644V35.349H126.251V16.7963L116.531 28.3474L106.812 16.7963V35.349H104.419ZM131.885 35.349V14.0784H151.295V16.4713H134.278V23.5024H147.957V25.9249H134.278V32.9561H151.295V35.349H131.885ZM172.407 35.349L165.464 27.0771H168.596L175.568 35.3195V35.349H172.407ZM154.445 35.349V14.1079H172.17C172.82 14.1079 173.411 14.2753 173.943 14.6101C174.494 14.9252 174.928 15.3487 175.243 15.8805C175.558 16.4122 175.715 17.0031 175.715 17.653V23.8865C175.715 24.5364 175.558 25.1273 175.243 25.659C174.928 26.1908 174.494 26.6241 173.943 26.9589C173.411 27.274 172.82 27.4316 172.17 27.4316H156.838V35.349H154.445ZM157.99 25.0091H172.17C172.485 25.0091 172.751 24.9008 172.968 24.6841C173.204 24.4675 173.323 24.2016 173.323 23.8865V17.653C173.323 17.3379 173.204 17.072 172.968 16.8554C172.751 16.619 172.485 16.5008 172.17 16.5008H157.99C157.675 16.5008 157.399 16.619 157.163 16.8554C156.946 17.072 156.838 17.3379 156.838 17.653V23.8865C156.838 24.2016 156.946 24.4675 157.163 24.6841C157.399 24.9008 157.675 25.0091 157.99 25.0091ZM182.368 35.349C181.718 35.349 181.118 35.1914 180.566 34.8763C180.034 34.5612 179.611 34.1378 179.296 33.606C178.981 33.0545 178.823 32.4538 178.823 31.8039V17.6235C178.823 16.9735 178.981 16.3827 179.296 15.8509C179.611 15.2994 180.034 14.8662 180.566 14.551C181.118 14.2359 181.718 14.0784 182.368 14.0784H200.035V16.4713H182.368C182.053 16.4713 181.777 16.5895 181.541 16.8258C181.324 17.0425 181.216 17.3083 181.216 17.6235V31.8039C181.216 32.119 181.324 32.3947 181.541 32.6311C181.777 32.8477 182.053 32.9561 182.368 32.9561H200.035V35.349H182.368ZM203.145 35.349V14.0784H205.538V23.5024H222.524V14.0784H224.947V35.349H222.524V25.9249H205.538V35.349H203.145Z" fill="#EEEEEE"/>
</svg>
