<svg width="32" height="32" viewBox="0 0 32 32" fill="none" xmlns="http://www.w3.org/2000/svg">
<path d="M16 2C13.8 2 12 3.8 12 6C12.0039 7.02794 12.4073 8.01409 13.125 8.75C11.273 9.773 10 11.746 10 14V19.406L10.281 19.719L12 21.437V30H14V20.594L13.719 20.281L12 18.563V14C12 11.781 13.781 10 16 10C18.219 10 20 11.781 20 14V18.563L18.281 20.281L18 20.594V30H20V21.437L21.719 19.719L22 19.406V14C22 11.746 20.727 9.773 18.875 8.75C19.5927 8.01409 19.9961 7.02794 20 6C20 3.8 18.2 2 16 2ZM16 4C17.117 4 18 4.883 18 6C18 7.117 17.117 8 16 8C14.883 8 14 7.117 14 6C14 4.883 14.883 4 16 4Z" fill="white"/>
</svg>
