<svg width="30" height="30" viewBox="0 0 30 30" fill="none" xmlns="http://www.w3.org/2000/svg">
<path d="M28.8281 15C28.8281 15.1865 28.754 15.3653 28.6222 15.4972C28.4903 15.629 28.3115 15.7031 28.125 15.7031H25.9699C25.7977 16.9992 25.1609 18.1887 24.1779 19.0508C23.1949 19.9129 21.9325 20.389 20.625 20.3906H15.7031V23.6719H18.75C19.6824 23.6719 20.5766 24.0423 21.2359 24.7016C21.8952 25.3609 22.2656 26.2551 22.2656 27.1875C22.2656 27.374 22.1915 27.5528 22.0597 27.6847C21.9278 27.8165 21.749 27.8906 21.5625 27.8906C21.376 27.8906 21.1972 27.8165 21.0653 27.6847C20.9335 27.5528 20.8594 27.374 20.8594 27.1875C20.8594 26.6281 20.6371 26.0915 20.2416 25.6959C19.846 25.3004 19.3094 25.0781 18.75 25.0781H15.7031V27.1875C15.7031 27.374 15.629 27.5528 15.4972 27.6847C15.3653 27.8165 15.1865 27.8906 15 27.8906C14.8135 27.8906 14.6347 27.8165 14.5028 27.6847C14.371 27.5528 14.2969 27.374 14.2969 27.1875V25.0781H11.25C10.6906 25.0781 10.154 25.3004 9.75845 25.6959C9.36286 26.0915 9.14062 26.6281 9.14062 27.1875C9.14062 27.374 9.06655 27.5528 8.93468 27.6847C8.80282 27.8165 8.62398 27.8906 8.4375 27.8906C8.25102 27.8906 8.07218 27.8165 7.94032 27.6847C7.80845 27.5528 7.73438 27.374 7.73438 27.1875C7.73438 26.2551 8.10477 25.3609 8.76408 24.7016C9.42339 24.0423 10.3176 23.6719 11.25 23.6719H14.2969V20.3906H9.375C8.06753 20.389 6.80509 19.9129 5.82209 19.0508C4.83909 18.1887 4.20234 16.9992 4.03008 15.7031H1.875C1.68852 15.7031 1.50968 15.629 1.37782 15.4972C1.24595 15.3653 1.17188 15.1865 1.17188 15C1.17188 14.8135 1.24595 14.6347 1.37782 14.5028C1.50968 14.371 1.68852 14.2969 1.875 14.2969H4.6875C4.87398 14.2969 5.05282 14.371 5.18468 14.5028C5.31655 14.6347 5.39062 14.8135 5.39062 15C5.39062 16.0567 5.81041 17.0702 6.55762 17.8174C7.30484 18.5646 8.31828 18.9844 9.375 18.9844H20.625C21.6817 18.9844 22.6952 18.5646 23.4424 17.8174C24.1896 17.0702 24.6094 16.0567 24.6094 15C24.6094 14.8135 24.6835 14.6347 24.8153 14.5028C24.9472 14.371 25.126 14.2969 25.3125 14.2969H28.125C28.3115 14.2969 28.4903 14.371 28.6222 14.5028C28.754 14.6347 28.8281 14.8135 28.8281 15ZM8.13633 16.0746C7.9819 15.8969 7.86753 15.688 7.80101 15.4621C7.73448 15.2362 7.71735 14.9987 7.75078 14.7656L9.35859 3.51562C9.41657 3.12579 9.61227 2.76963 9.91023 2.51165C10.2082 2.25368 10.5887 2.11097 10.9828 2.10938H19.0172C19.4113 2.11097 19.7918 2.25368 20.0898 2.51165C20.3877 2.76963 20.5834 3.12579 20.6414 3.51562L22.2492 14.7656C22.2828 14.9985 22.266 15.2359 22.1997 15.4617C22.1335 15.6875 22.0195 15.8964 21.8655 16.0742C21.7114 16.252 21.5209 16.3947 21.3069 16.4924C21.0928 16.5901 20.8603 16.6407 20.625 16.6406H9.375C9.14004 16.6405 8.90786 16.5899 8.69416 16.4922C8.48046 16.3946 8.29022 16.2521 8.13633 16.0746ZM9.19805 15.1535C9.22003 15.1789 9.24721 15.1992 9.27774 15.2132C9.30827 15.2271 9.34143 15.2344 9.375 15.2344H20.625C20.6586 15.2344 20.6917 15.2271 20.7223 15.2132C20.7528 15.1992 20.78 15.1789 20.802 15.1535C20.8239 15.1282 20.8402 15.0985 20.8497 15.0663C20.8592 15.0342 20.8617 15.0004 20.857 14.9672L19.2492 3.71719C19.2413 3.66087 19.2131 3.60937 19.17 3.57229C19.1269 3.5352 19.0717 3.51507 19.0148 3.51562H10.9828C10.9259 3.51507 10.8708 3.5352 10.8277 3.57229C10.7846 3.60937 10.7564 3.66087 10.7484 3.71719L9.14062 14.9672C9.13626 15.0005 9.13913 15.0345 9.14904 15.0666C9.15895 15.0988 9.17566 15.1284 9.19805 15.1535Z" fill="white"/>
</svg>
