<svg width="30" height="30" viewBox="0 0 30 30" fill="none" xmlns="http://www.w3.org/2000/svg">
<path d="M11.4663 23.75C11.1471 23.75 10.8442 23.6808 10.5575 23.5425C10.2708 23.4042 10.0354 23.2121 9.85125 22.9662L3.75 15L9.85 7.03375C10.0358 6.78875 10.2717 6.59708 10.5575 6.45875C10.8433 6.32042 11.1463 6.25083 11.4663 6.25H24.2313C24.7863 6.25 25.2612 6.44792 25.6562 6.84375C26.0513 7.23958 26.2492 7.71458 26.25 8.26875V21.7313C26.25 22.2863 26.0521 22.7612 25.6562 23.1562C25.2604 23.5513 24.7854 23.7492 24.2313 23.75H11.4663ZM5.3125 15L10.8413 22.2125C10.9213 22.3075 11.0133 22.3792 11.1175 22.4275C11.2217 22.4758 11.3379 22.5 11.4663 22.5H24.2313C24.4554 22.5 24.6396 22.4279 24.7837 22.2837C24.9279 22.1396 25 21.955 25 21.73V8.27C25 8.045 24.9279 7.86042 24.7837 7.71625C24.6396 7.57208 24.4554 7.5 24.2313 7.5H11.4663C11.3379 7.5 11.2217 7.52417 11.1175 7.5725C11.0133 7.62083 10.9213 7.69292 10.8413 7.78875L5.3125 15ZM12.3563 15.9625C12.6146 15.9625 12.8392 15.8667 13.03 15.675C13.2208 15.4833 13.3167 15.2583 13.3175 15C13.3183 14.7417 13.2225 14.5167 13.03 14.325C12.8375 14.1333 12.6125 14.0375 12.355 14.0375C12.0975 14.0375 11.8729 14.1333 11.6813 14.325C11.4896 14.5167 11.3937 14.7417 11.3937 15C11.3937 15.2583 11.4896 15.4833 11.6813 15.675C11.8729 15.8667 12.0979 15.9625 12.3563 15.9625ZM16.7313 15.9625C16.9896 15.9625 17.2142 15.8667 17.405 15.675C17.5958 15.4833 17.6917 15.2583 17.6925 15C17.6933 14.7417 17.5975 14.5167 17.405 14.325C17.2125 14.1333 16.9875 14.0375 16.73 14.0375C16.4725 14.0375 16.2479 14.1333 16.0563 14.325C15.8646 14.5167 15.7687 14.7417 15.7687 15C15.7687 15.2583 15.8646 15.4833 16.0563 15.675C16.2479 15.8667 16.4729 15.9625 16.7313 15.9625ZM21.1063 15.9625C21.3646 15.9625 21.5892 15.8667 21.78 15.675C21.9708 15.4833 22.0667 15.2583 22.0675 15C22.0683 14.7417 21.9725 14.5167 21.78 14.325C21.5875 14.1333 21.3625 14.0375 21.105 14.0375C20.8475 14.0375 20.6229 14.1333 20.4312 14.325C20.2396 14.5167 20.1437 14.7417 20.1437 15C20.1437 15.2583 20.2396 15.4833 20.4312 15.675C20.6229 15.8667 20.8479 15.9625 21.1063 15.9625Z" fill="white"/>
</svg>
