<svg width="30" height="30" viewBox="0 0 30 30" fill="none" xmlns="http://www.w3.org/2000/svg">
<path d="M25.8727 18.9998L20.3391 16.5237C20.1246 16.4308 19.8903 16.3929 19.6574 16.4134C19.4246 16.4338 19.2005 16.512 19.0055 16.6408C18.9899 16.6507 18.975 16.6617 18.961 16.6737L16.0547 19.151C15.99 19.1904 15.9166 19.2133 15.841 19.2176C15.7654 19.2219 15.6898 19.2075 15.6211 19.1756C13.718 18.2569 11.7481 16.3022 10.8293 14.4213C10.7968 14.3531 10.7817 14.2779 10.7854 14.2024C10.7891 14.127 10.8114 14.0536 10.8504 13.9889L13.3348 11.0346C13.3465 11.0205 13.357 11.0053 13.3676 10.9901C13.496 10.7953 13.574 10.5716 13.5944 10.3393C13.6149 10.1069 13.5772 9.87302 13.4848 9.65882L11.0039 4.1346C10.8842 3.85481 10.6768 3.62142 10.4131 3.46949C10.1494 3.31756 9.84354 3.25529 9.54142 3.29202C8.0667 3.48646 6.71318 4.21108 5.73368 5.33054C4.75418 6.45 4.21568 7.88774 4.21876 9.37522C4.21876 18.4221 11.5781 25.7815 20.625 25.7815C22.1125 25.7846 23.5502 25.2461 24.6697 24.2666C25.7892 23.2871 26.5138 21.9335 26.7082 20.4588C26.7447 20.1581 26.683 19.8536 26.5325 19.5907C26.3819 19.3278 26.1505 19.1206 25.8727 18.9998ZM25.7813 20.3416C25.6158 21.5905 25.0011 22.7364 24.0521 23.5651C23.1031 24.3937 21.8848 24.8483 20.625 24.844C12.0961 24.844 5.15626 17.9041 5.15626 9.37522C5.1519 8.11539 5.60653 6.8971 6.43516 5.94813C7.26379 4.99915 8.40969 4.38445 9.65861 4.21897C9.67734 4.21785 9.69612 4.21785 9.71486 4.21897C9.80733 4.21976 9.89751 4.24789 9.97404 4.29981C10.0506 4.35173 10.11 4.42513 10.1449 4.51077L12.6188 10.035C12.6476 10.1025 12.6602 10.1759 12.6555 10.2491C12.6509 10.3224 12.629 10.3936 12.5918 10.4569L10.1086 13.41C10.0969 13.4252 10.0852 13.4393 10.0746 13.4557C9.94233 13.658 9.86441 13.891 9.8484 14.1322C9.83239 14.3734 9.87882 14.6146 9.98322 14.8326C11.0016 16.9174 13.1016 19.0022 15.2098 20.0205C15.4293 20.1243 15.6719 20.1694 15.914 20.1515C16.1561 20.1336 16.3895 20.0534 16.5914 19.9186L16.6348 19.8858L19.5445 17.4108C19.6068 17.3727 19.6772 17.35 19.7499 17.3445C19.8226 17.339 19.8956 17.3509 19.9629 17.3791L25.4953 19.8588C25.5887 19.8977 25.667 19.9657 25.7185 20.0527C25.7701 20.1397 25.7921 20.2411 25.7813 20.3416Z" fill="white"/>
</svg>
