<svg width="33" height="33" viewBox="0 0 33 33" fill="none" xmlns="http://www.w3.org/2000/svg">
<rect x="1.01953" y="0.346924" width="31.5645" height="31.5645" rx="6.6955" fill="#F2E3DD"/>
<path d="M23.0197 17.5614H18.2375V22.3436C18.2375 22.5973 18.1367 22.8406 17.9573 23.0199C17.778 23.1993 17.5347 23.3001 17.281 23.3001C17.0274 23.3001 16.7841 23.1993 16.6047 23.0199C16.4253 22.8406 16.3246 22.5973 16.3246 22.3436V17.5614H11.5424C11.2887 17.5614 11.0454 17.4607 10.8661 17.2813C10.6867 17.1019 10.5859 16.8587 10.5859 16.605C10.5859 16.3513 10.6867 16.1081 10.8661 15.9287C11.0454 15.7493 11.2887 15.6486 11.5424 15.6486H16.3246V10.8664C16.3246 10.6127 16.4253 10.3694 16.6047 10.19C16.7841 10.0107 17.0274 9.90991 17.281 9.90991C17.5347 9.90991 17.778 10.0107 17.9573 10.19C18.1367 10.3694 18.2375 10.6127 18.2375 10.8664V15.6486H23.0197C23.2733 15.6486 23.5166 15.7493 23.696 15.9287C23.8753 16.1081 23.9761 16.3513 23.9761 16.605C23.9761 16.8587 23.8753 17.1019 23.696 17.2813C23.5166 17.4607 23.2733 17.5614 23.0197 17.5614Z" fill="black"/>
</svg>
