<svg width="28" height="28" viewBox="0 0 28 28" fill="none" xmlns="http://www.w3.org/2000/svg">
<g clip-path="url(#clip0_128_1567)">
<path fill-rule="evenodd" clip-rule="evenodd" d="M24.8401 13.7929C24.8401 16.715 23.6793 19.5175 21.613 21.5837C19.5468 23.65 16.7443 24.8108 13.8222 24.8108C10.9001 24.8108 8.09763 23.65 6.03137 21.5837C3.96512 19.5175 2.80431 16.715 2.80431 13.7929C2.80431 10.8708 3.96512 8.06833 6.03137 6.00208C8.09763 3.93582 10.9001 2.77501 13.8222 2.77501C16.7443 2.77501 19.5468 3.93582 21.613 6.00208C23.6793 8.06833 24.8401 10.8708 24.8401 13.7929ZM27.3827 13.7929C27.3827 17.3894 25.954 20.8385 23.4109 23.3816C20.8678 25.9247 17.4187 27.3534 13.8222 27.3534C10.2257 27.3534 6.77657 25.9247 4.23349 23.3816C1.69041 20.8385 0.261719 17.3894 0.261719 13.7929C0.261719 10.1964 1.69041 6.74728 4.23349 4.20419C6.77657 1.66111 10.2257 0.232422 13.8222 0.232422C17.4187 0.232422 20.8678 1.66111 23.4109 4.20419C25.954 6.74728 27.3827 10.1964 27.3827 13.7929ZM9.21163 7.38557C8.97064 7.16101 8.65189 7.03876 8.32254 7.04457C7.99319 7.05038 7.67895 7.1838 7.44602 7.41673C7.2131 7.64965 7.07968 7.96389 7.07387 8.29324C7.06806 8.62259 7.19031 8.94134 7.41487 9.18234L18.4328 20.2002C18.5491 20.3251 18.6895 20.4253 18.8454 20.4948C19.0014 20.5643 19.1697 20.6016 19.3404 20.6047C19.5111 20.6077 19.6807 20.5763 19.839 20.5123C19.9973 20.4484 20.1411 20.3532 20.2618 20.2325C20.3825 20.1118 20.4777 19.968 20.5416 19.8097C20.6056 19.6514 20.637 19.4818 20.634 19.3111C20.6309 19.1404 20.5936 18.9721 20.5241 18.8161C20.4546 18.6602 20.3544 18.5198 20.2295 18.4035L9.21163 7.38557Z" fill="#6226EF"/>
</g>
<defs>
<clipPath id="clip0_128_1567">
<rect width="27.121" height="27.121" fill="white" transform="translate(0.261719 0.232422)"/>
</clipPath>
</defs>
</svg>
