<svg width="30" height="30" viewBox="0 0 30 30" fill="none" xmlns="http://www.w3.org/2000/svg">
<path fill-rule="evenodd" clip-rule="evenodd" d="M13.5938 4.21885C13.8526 4.21885 14.0625 4.4287 14.0625 4.6876V13.5938C14.0625 13.8527 13.8526 14.0626 13.5938 14.0626H4.6875C4.4286 14.0626 4.21875 13.8527 4.21875 13.5938V4.6876C4.21875 4.4287 4.4286 4.21885 4.6875 4.21885H13.5938ZM12.0703 6.21103H6.21094V12.0704H12.0703V6.21103ZM26.5234 8.77996C26.7065 8.96301 26.7065 9.25981 26.5234 9.44286L21.2201 14.7462C21.0371 14.9292 20.7403 14.9292 20.5572 14.7462L15.2539 9.44286C15.0709 9.25981 15.0709 8.96301 15.2539 8.77996L20.5572 3.47664C20.7403 3.29359 21.0371 3.29359 21.2201 3.47664L26.5234 8.77996ZM24.0375 9.1114L20.8887 5.9626L17.7398 9.11143L20.8887 12.2603L24.0375 9.1114ZM13.5938 15.9376C13.8526 15.9376 14.0625 16.1475 14.0625 16.4063V25.3126C14.0625 25.5715 13.8526 25.7813 13.5938 25.7813H4.6875C4.4286 25.7813 4.21875 25.5715 4.21875 25.3126V16.4063C4.21875 16.1475 4.4286 15.9376 4.6875 15.9376H13.5938ZM12.0703 17.9298H6.21094V23.7892H12.0703V17.9298ZM25.3125 15.9376C25.5714 15.9376 25.7813 16.1475 25.7813 16.4063V25.3126C25.7813 25.5715 25.5714 25.7813 25.3125 25.7813H16.4063C16.1474 25.7813 15.9375 25.5715 15.9375 25.3126V16.4063C15.9375 16.1475 16.1474 15.9376 16.4063 15.9376H25.3125ZM23.7891 17.9298H17.9297V23.7892H23.7891V17.9298Z" fill="white"/>
</svg>
