<svg width="30" height="30" viewBox="0 0 30 30" fill="none" xmlns="http://www.w3.org/2000/svg">
<path d="M26.25 15C26.2536 17.2334 25.5893 19.4169 24.3425 21.27C23.3143 22.8037 21.9239 24.0605 20.2944 24.9291C18.665 25.7977 16.8465 26.2513 15 26.25C13.1535 26.2513 11.335 25.7977 9.70556 24.9291C8.07607 24.0605 6.68573 22.8037 5.6575 21.27C4.67841 19.8105 4.05488 18.1419 3.83688 16.398C3.61889 14.6541 3.81249 12.8834 4.40218 11.2278C4.99187 9.57222 5.96124 8.07782 7.23258 6.8644C8.50392 5.65098 10.0419 4.75229 11.7231 4.24038C13.4044 3.72847 15.1822 3.61757 16.9141 3.91659C18.6459 4.2156 20.2836 4.9162 21.6959 5.96223C23.1082 7.00826 24.2557 8.37061 25.0466 9.94008C25.8374 11.5096 26.2496 13.2425 26.25 15Z" stroke="white"/>
<path d="M16.8755 11.25C16.8755 11.7473 16.6779 12.2242 16.3263 12.5758C15.9747 12.9275 15.4977 13.125 15.0005 13.125V14.375C15.4108 14.375 15.8172 14.2942 16.1964 14.1371C16.5755 13.9801 16.92 13.7499 17.2102 13.4597C17.5004 13.1695 17.7305 12.825 17.8876 12.4459C18.0446 12.0667 18.1255 11.6604 18.1255 11.25H16.8755ZM15.0005 13.125C14.5032 13.125 14.0263 12.9275 13.6746 12.5758C13.323 12.2242 13.1255 11.7473 13.1255 11.25H11.8755C11.8755 11.6604 11.9563 12.0667 12.1133 12.4459C12.2704 12.825 12.5006 13.1695 12.7908 13.4597C13.3768 14.0458 14.1717 14.375 15.0005 14.375V13.125ZM13.1255 11.25C13.1255 10.7527 13.323 10.2758 13.6746 9.92417C14.0263 9.57254 14.5032 9.375 15.0005 9.375V8.125C14.1717 8.125 13.3768 8.45424 12.7908 9.04029C12.2047 9.62634 11.8755 10.4212 11.8755 11.25H13.1255ZM15.0005 9.375C15.4977 9.375 15.9747 9.57254 16.3263 9.92417C16.6779 10.2758 16.8755 10.7527 16.8755 11.25H18.1255C18.1255 10.4212 17.7962 9.62634 17.2102 9.04029C16.6241 8.45424 15.8293 8.125 15.0005 8.125V9.375ZM6.45797 22.32L5.85797 22.1425L5.76172 22.4688L5.98297 22.7275L6.45797 22.32ZM23.543 22.32L24.018 22.7275L24.2392 22.4688L24.1417 22.1425L23.543 22.32ZM11.2505 19.375H18.7505V18.125H11.2505V19.375ZM11.2505 18.125C10.039 18.1248 8.85992 18.5157 7.88854 19.2396C6.91715 19.9635 6.20417 20.9816 5.85797 22.1425L7.05672 22.4988C7.32619 21.5959 7.87992 20.8042 8.63553 20.2414C9.39115 19.6785 10.3083 19.3747 11.2505 19.375V18.125ZM15.0005 25.625C13.4671 25.6266 11.9515 25.2956 10.5585 24.6546C9.16547 24.0137 7.92808 23.0781 6.93172 21.9125L5.98297 22.7275C7.09678 24.0297 8.47976 25.0748 10.0366 25.7909C11.5933 26.5069 13.2869 26.8768 15.0005 26.875V25.625ZM18.7505 19.375C19.6928 19.3748 20.6101 19.6788 21.3657 20.2419C22.1213 20.8049 22.675 21.5969 22.9442 22.5L24.1417 22.1425C23.7955 20.9816 23.0838 19.9635 22.1124 19.2396C21.141 18.5157 19.9619 18.1248 18.7505 18.125V19.375ZM23.0692 21.9125C22.0729 23.0781 20.8355 24.0137 19.4424 24.6546C18.0494 25.2956 16.5339 25.6266 15.0005 25.625V26.875C16.714 26.8768 18.4076 26.5069 19.9644 25.7909C21.5212 25.0748 22.9042 24.0297 24.018 22.7275L23.0692 21.9125Z" fill="white"/>
</svg>
