<svg width="28" height="28" viewBox="0 0 28 28" fill="none" xmlns="http://www.w3.org/2000/svg">
<path d="M12.5488 12.0974L15.9389 15.4875M15.9389 12.0974L12.5488 15.4875" stroke="#F7CDC9" stroke-width="1.80806" stroke-linecap="round" stroke-linejoin="round"/>
<path d="M8.5937 3.62207H21.0243C21.324 3.62207 21.6114 3.74111 21.8233 3.953C22.0351 4.16489 22.1542 4.45227 22.1542 4.75193V22.8329C22.1542 23.1326 22.0351 23.42 21.8233 23.6319C21.6114 23.8437 21.324 23.9628 21.0243 23.9628H7.46384C7.16419 23.9628 6.8768 23.8437 6.66491 23.6319C6.45302 23.42 6.33398 23.1326 6.33398 22.8329V5.88233M8.5937 3.62207L6.33398 5.88233M8.5937 3.62207V5.88233H6.33398" stroke="#F7CDC9" stroke-width="1.80806" stroke-linecap="round" stroke-linejoin="round"/>
</svg>
