<svg width="46" height="30" viewBox="0 0 46 30" fill="none" xmlns="http://www.w3.org/2000/svg">
<path d="M15 15.2087L17.0875 16.4787C17.2675 16.5921 17.4483 16.5829 17.63 16.4513C17.8108 16.3188 17.8783 16.1412 17.8325 15.9187L17.2787 13.56L19.1163 11.9812C19.2913 11.8254 19.3454 11.6454 19.2788 11.4412C19.2121 11.2371 19.0646 11.1246 18.8363 11.1038L16.4163 10.885L15.4663 8.65875C15.3779 8.45625 15.2225 8.355 15 8.355C14.7775 8.355 14.6221 8.45625 14.5337 8.65875L13.5837 10.8837L11.1637 11.1038C10.9362 11.1246 10.7887 11.2371 10.7212 11.4412C10.6537 11.6454 10.7079 11.8254 10.8837 11.9812L12.7213 13.56L12.1687 15.9175C12.1221 16.1408 12.1892 16.3188 12.37 16.4513C12.5508 16.5838 12.7321 16.5929 12.9138 16.4787L15 15.2087ZM7.59625 21.25L5.46625 23.38C5.15042 23.6958 4.78542 23.7683 4.37125 23.5975C3.95708 23.4267 3.75 23.1162 3.75 22.6662V5.77C3.75 5.19417 3.94292 4.71375 4.32875 4.32875C4.71458 3.94375 5.195 3.75083 5.77 3.75H24.2313C24.8062 3.75 25.2867 3.94292 25.6725 4.32875C26.0583 4.71458 26.2508 5.195 26.25 5.77V19.2313C26.25 19.8062 26.0575 20.2867 25.6725 20.6725C25.2875 21.0583 24.8071 21.2508 24.2313 21.25H7.59625ZM7.0625 20H24.2313C24.4229 20 24.5992 19.92 24.76 19.76C24.9208 19.6 25.0008 19.4237 25 19.2313V5.76875C25 5.57708 24.92 5.40083 24.76 5.24C24.6 5.07917 24.4237 4.99917 24.2313 5H5.76875C5.57708 5 5.40083 5.08 5.24 5.24C5.07917 5.4 4.99917 5.57625 5 5.76875V22.0563L7.0625 20Z" fill="white"/>
</svg>
