<svg width="30" height="30" viewBox="0 0 30 30" fill="none" xmlns="http://www.w3.org/2000/svg">
<path d="M25.0387 25.9875C25.6137 26.5625 26.5012 25.675 25.9262 25.1125L21.2387 20.4125C22.8834 18.5933 23.7923 16.2273 23.7887 13.775C23.7887 8.28745 19.3262 3.82495 13.8387 3.82495C8.35117 3.82495 3.88867 8.28745 3.88867 13.775C3.88867 19.2625 8.35117 23.725 13.8387 23.725C16.3137 23.725 18.6012 22.8125 20.3512 21.3L25.0387 25.9875ZM5.13742 13.775C5.13742 8.97495 9.04992 5.07495 13.8374 5.07495C18.6374 5.07495 22.5374 8.97495 22.5374 13.775C22.5374 18.575 18.6374 22.475 13.8374 22.475C9.04992 22.475 5.13742 18.575 5.13742 13.775Z" fill="white"/>
</svg>
