<svg width="30" height="30" viewBox="0 0 30 30" fill="none" xmlns="http://www.w3.org/2000/svg">
<path d="M4.375 11.71C4.375 7.36875 4.375 5.1975 5.65625 3.84875C6.9375 2.5 9 2.5 13.125 2.5H16.875C21 2.5 23.0625 2.5 24.3438 3.85C25.625 5.19625 25.625 7.3675 25.625 11.7087V18.2887C25.625 22.63 25.625 24.8013 24.3438 26.15C23.0625 27.4988 21 27.5 16.875 27.5H13.125C9 27.5 6.9375 27.5 5.65625 26.15C4.375 24.8038 4.375 22.6325 4.375 18.2913V11.71Z" stroke="white" stroke-width="1.5" stroke-linecap="round" stroke-linejoin="round"/>
<path d="M10 2.5L10.1025 3.11625C10.3525 4.6125 10.4775 5.36125 11.0025 5.80625C11.525 6.25 12.2838 6.25 13.8013 6.25H16.1975C17.7138 6.25 18.4725 6.25 18.9975 5.80625C19.5225 5.36125 19.6475 4.6125 19.8962 3.11625L20 2.5M10 20H15M10 13.75H20" stroke="white" stroke-width="1.5" stroke-linecap="round" stroke-linejoin="round"/>
</svg>
