<svg width="28" height="28" viewBox="0 0 28 28" fill="none" xmlns="http://www.w3.org/2000/svg">
<g clip-path="url(#clip0_128_1571)">
<path d="M0.289062 4.40479V5.4479H8.63397V6.49101H2.37529V7.53413H0.289062V8.57724H7.59086V9.62035H2.37529V10.6635H0.289062V11.7066H6.54774V12.7497H2.37529V13.7928H0.289062V14.8359H5.50463V15.879H2.37529V20.0515C2.37529 20.6774 2.79254 21.0946 3.4184 21.0946H4.46152C4.67014 19.3213 6.23481 17.8672 8.11242 17.8672C9.99002 17.8672 11.5547 19.217 11.7633 21.0946H14.8927C15.5185 21.0946 15.9358 20.6774 15.9358 20.0515V5.4479C15.9358 4.82203 15.5185 4.40479 14.8927 4.40479H0.289062ZM18.022 8.57724C17.3961 8.57724 16.9789 8.99449 16.9789 9.62035V20.0515C16.9789 20.573 17.3961 21.0946 18.022 21.0946C18.2306 19.3213 19.7953 17.8672 21.6729 17.8672C23.5505 17.8672 25.1152 19.217 25.3238 21.0946H26.3669C26.9928 21.0946 27.41 20.6774 27.41 20.0515V14.8359C27.41 13.8971 26.562 12.7497 26.562 12.7497L24.2807 9.62035C23.7591 8.99449 23.4462 8.57724 22.716 8.57724H18.022ZM20.1082 10.6635H22.618C22.8266 10.6635 23.0425 10.8596 23.0425 10.8596L25.2257 13.8909C25.4344 14.2038 25.6503 14.5292 25.6503 14.7379H20.1082V10.6635ZM8.11242 19.2045C7.47329 19.2064 6.86088 19.4611 6.40886 19.9129C5.95683 20.3647 5.70189 20.977 5.69969 21.6162C5.70162 22.2555 5.95643 22.868 6.40849 23.3201C6.86055 23.7721 7.47311 24.027 8.11242 24.0289C8.75172 24.027 9.36428 23.7721 9.81634 23.3201C10.2684 22.868 10.5232 22.2555 10.5251 21.6162C10.5232 20.9769 10.2684 20.3643 9.81634 19.9122C9.36428 19.4602 8.75172 19.2064 8.11242 19.2045ZM21.6729 19.2045C21.0338 19.2064 20.4214 19.4611 19.9693 19.9129C19.5173 20.3647 19.2624 20.977 19.2602 21.6162C19.2621 22.2555 19.5169 22.868 19.969 23.3201C20.421 23.7721 21.0336 24.027 21.6729 24.0289C22.3122 24.027 22.9248 23.7721 23.3768 23.3201C23.8289 22.868 24.0837 22.2555 24.0856 21.6162C24.0837 20.9769 23.8289 20.3643 23.3768 19.9122C22.9248 19.4602 22.3122 19.2064 21.6729 19.2045Z" fill="#BD34FE"/>
</g>
<defs>
<clipPath id="clip0_128_1571">
<rect width="27.121" height="27.121" fill="white" transform="translate(0.291016 0.232422)"/>
</clipPath>
</defs>
</svg>
