<svg width="49" height="49" viewBox="0 0 49 49" fill="none" xmlns="http://www.w3.org/2000/svg">
<rect x="0.288235" y="0.288235" width="48.4235" height="47.8471" rx="23.9235" stroke="black" stroke-width="0.576471"/>
<g clip-path="url(#clip0_8_441)">
<path d="M27.6576 26.2272C28.6784 26.58 29.5979 27.0716 30.4161 27.7021C31.2342 28.3326 31.9323 29.0683 32.5103 29.9089C33.0883 30.7496 33.5311 31.6616 33.8389 32.6449C34.1466 33.6282 34.3005 34.6603 34.3005 35.7412H32.8593C32.8593 34.5102 32.6416 33.3693 32.2063 32.3184C31.7709 31.2675 31.1629 30.3518 30.3823 29.5712C29.6017 28.7905 28.6897 28.1863 27.6463 27.7584C26.603 27.3306 25.4583 27.1092 24.2123 27.0941C23.4091 27.0941 22.636 27.1955 21.8929 27.3981C21.1498 27.6008 20.4592 27.886 19.8212 28.2538C19.1832 28.6216 18.6014 29.0683 18.076 29.5937C17.5506 30.1191 17.104 30.7008 16.7362 31.3389C16.3684 31.9769 16.0794 32.6712 15.8692 33.4218C15.659 34.1724 15.5577 34.9455 15.5652 35.7412H14.124C14.124 34.6603 14.2817 33.6282 14.5969 32.6449C14.9122 31.6616 15.3588 30.7534 15.9368 29.9202C16.5147 29.087 17.2128 28.3589 18.031 27.7359C18.8491 27.1129 19.7686 26.6137 20.7895 26.2384C20.204 25.9232 19.6786 25.5404 19.2132 25.09C18.7478 24.6396 18.3537 24.1405 18.031 23.5925C17.7082 23.0446 17.4567 22.4554 17.2766 21.8248C17.0964 21.1943 17.0064 20.5488 17.0064 19.8883C17.0064 18.8899 17.194 17.9554 17.5693 17.0847C17.9446 16.214 18.4588 15.4484 19.1118 14.7878C19.7649 14.1273 20.5268 13.6131 21.3975 13.2453C22.2682 12.8775 23.2064 12.6899 24.2123 12.6824C25.2106 12.6824 26.1451 12.87 27.0158 13.2453C27.8865 13.6206 28.6521 14.1348 29.3127 14.7878C29.9732 15.4409 30.4874 16.2027 30.8552 17.0735C31.223 17.9442 31.4106 18.8824 31.4181 19.8883C31.4181 20.5488 31.3318 21.1906 31.1592 21.8136C30.9865 22.4366 30.7351 23.0221 30.4048 23.57C30.0745 24.118 29.6805 24.6171 29.2226 25.0675C28.7647 25.5179 28.243 25.9044 27.6576 26.2272ZM18.4476 19.8883C18.4476 20.6839 18.5977 21.4308 18.8979 22.1288C19.1982 22.8269 19.611 23.4349 20.1364 23.9528C20.6619 24.4707 21.2736 24.8836 21.9717 25.1913C22.6697 25.4991 23.4166 25.653 24.2123 25.653C25.0079 25.653 25.7548 25.5028 26.4528 25.2026C27.1509 24.9023 27.7589 24.4895 28.2768 23.9641C28.7947 23.4387 29.2076 22.8269 29.5153 22.1288C29.8231 21.4308 29.977 20.6839 29.977 19.8883C29.977 19.0926 29.8268 18.3457 29.5266 17.6477C29.2264 16.9496 28.8135 16.3416 28.2881 15.8237C27.7627 15.3058 27.1509 14.8929 26.4528 14.5852C25.7548 14.2774 25.0079 14.1235 24.2123 14.1235C23.4166 14.1235 22.6697 14.2737 21.9717 14.5739C21.2736 14.8742 20.6656 15.287 20.1477 15.8124C19.6298 16.3379 19.2169 16.9496 18.9092 17.6477C18.6014 18.3457 18.4476 19.0926 18.4476 19.8883Z" fill="black"/>
</g>
<defs>
<clipPath id="clip0_8_441">
<rect width="23.0588" height="23.0588" fill="white" transform="translate(12.6826 12.6824)"/>
</clipPath>
</defs>
</svg>
