<svg width="40" height="40" viewBox="0 0 40 40" fill="none" xmlns="http://www.w3.org/2000/svg">
<path d="M12.2208 24.8625C11.877 25.1844 11.5301 24.8 11.5301 24.8C11.5301 24.8 5.75515 18.6812 5.38015 18.4062C4.85202 18.0219 3.72077 17.4187 2.58952 18.5844C2.11765 19.0687 1.3489 20.1469 2.77702 21.8844C3.0864 22.2594 12.0833 31.7406 12.6083 32.2531C12.6083 32.2531 16.7645 36.2969 19.2801 37.8187C19.977 38.2406 20.7614 38.6875 21.677 39C22.5895 39.3125 23.6208 39.5281 24.7083 39.5281C25.7958 39.5406 26.9239 39.3312 27.9895 38.9406C29.0551 38.5469 30.0489 37.975 30.952 37.3156C31.1739 37.1469 31.3989 36.9781 31.6083 36.7969L32.2145 36.2969C32.6285 35.9469 33.0268 35.5788 33.4083 35.1938C34.1676 34.4375 34.852 33.6281 35.4551 32.8C36.0551 31.9687 36.5645 31.1094 36.9708 30.2531C37.377 29.3969 37.6614 28.5375 37.8333 27.725C38.0145 26.9156 38.0645 26.15 38.0364 25.4812C38.0301 24.8125 37.8958 24.2406 37.7864 23.7844C37.6614 23.3281 37.527 22.9875 37.4208 22.7625C37.3176 22.5375 37.2614 22.4187 37.2614 22.4187C37.1176 22.0156 36.9801 21.6312 36.8583 21.2844C36.3982 19.9819 35.9284 18.6829 35.4489 17.3875L35.452 17.3969C33.9364 13.2812 32.3083 9.04062 32.3083 9.04062C32.0614 8.29375 31.152 8.03437 30.4833 8.51562C28.552 9.90312 27.9614 11.9281 28.6426 14.0875L30.3895 18.875C30.6364 19.4094 29.9551 20.0281 29.4989 19.6562C28.0645 18.4875 25.0301 15.2656 25.0301 15.2656C23.6739 13.9656 16.0208 6.11874 15.5083 5.64062C14.477 4.68124 13.177 4.18749 12.1864 4.91562C11.1739 5.65937 10.8926 6.80937 11.8708 8.06562C12.1364 8.40624 19.8708 16.5781 19.8708 16.5781C20.3208 17.05 19.7895 17.7187 19.2926 17.2594C19.2926 17.2594 9.67077 7.22187 9.2364 6.75312C8.25202 5.68437 6.67077 5.44999 5.73327 6.33125C4.81765 7.19062 4.83952 8.59999 5.83952 9.70624C6.15827 10.0562 12.9364 17.2125 15.6489 20.1437C15.8301 20.3406 15.9708 20.6031 15.702 20.85C15.6989 20.8531 15.427 21.1469 15.077 20.7719C14.3395 19.9844 6.9739 12.3094 6.56452 11.8937C5.6239 10.9375 4.3614 10.4844 3.34577 11.4156C2.42077 12.2625 2.27077 13.7406 3.33327 14.7844L12.2551 24.2156C12.2551 24.2156 12.5458 24.5594 12.2208 24.8625Z" fill="#FAC036"/>
<path d="M26.7061 17L27.4593 17.8062C27.4593 17.8062 23.1499 21.9656 26.0874 28.3531C26.0874 28.3531 26.4686 29.1625 25.9686 29.2969C25.9686 29.2969 25.5311 29.5406 25.0311 28.2969C25.0311 28.2938 22.0655 22.2281 26.7061 17Z" fill="#E48C15"/>
<path d="M19.7738 3.1875C19.7738 3.1875 21.5895 3.4625 23.2707 5.2625C24.952 7.06562 25.7301 9.38125 25.7301 9.38125M24.1988 1.09375C24.1988 1.09375 25.7207 1.85937 26.8957 3.75C28.0707 5.64062 28.3551 7.82812 28.3551 7.82812M11.1582 34.6031C11.1582 34.6031 9.32695 34.725 7.29883 33.325C5.2707 31.925 4.01133 29.8312 4.01133 29.8312M9.85195 37.675C9.85195 37.675 8.15195 37.7469 6.20195 36.6687C4.25195 35.5906 2.93945 33.8187 2.93945 33.8187" stroke="#444444" stroke-width="1.25" stroke-miterlimit="10" stroke-linecap="round"/>
</svg>
